<svg width="41" height="41" viewBox="0 0 41 41" fill="none" xmlns="http://www.w3.org/2000/svg">
<path d="M20.399 40.9712C17.566 40.9712 14.933 40.4622 12.499 39.4462C10.066 38.4292 7.94899 37.0212 6.14899 35.2212C4.34899 33.4212 2.941 31.3042 1.924 28.8712C0.907996 26.4372 0.398987 23.8042 0.398987 20.9712C0.398987 18.1712 0.907996 15.5542 1.924 13.1212C2.941 10.6872 4.34899 8.57122 6.14899 6.77122C7.94899 4.97122 10.066 3.55422 12.499 2.52122C14.933 1.48722 17.566 0.971222 20.399 0.971222C23.199 0.971222 25.816 1.48722 28.249 2.52122C30.683 3.55422 32.799 4.97122 34.599 6.77122C36.399 8.57122 37.816 10.6872 38.849 13.1212C39.883 15.5542 40.399 18.1712 40.399 20.9712C40.399 23.8042 39.883 26.4372 38.849 28.8712C37.816 31.3042 36.399 33.4212 34.599 35.2212C32.799 37.0212 30.683 38.4292 28.249 39.4462C25.816 40.4622 23.199 40.9712 20.399 40.9712ZM20.399 37.9712C25.066 37.9712 29.066 36.3042 32.399 32.9712C35.733 29.6372 37.399 25.6372 37.399 20.9712C37.399 16.3042 35.733 12.3042 32.399 8.97121C29.066 5.63721 25.066 3.97121 20.399 3.97121C15.733 3.97121 11.733 5.63721 8.39899 8.97121C5.06599 12.3042 3.39899 16.3042 3.39899 20.9712C3.39899 25.6372 5.06599 29.6372 8.39899 32.9712C11.733 36.3042 15.733 37.9712 20.399 37.9712Z" fill="#1b1b1f"/>
<path d="M8.57796 27.9712V25.7553L13.7555 20.9613C14.1959 20.5351 14.5652 20.1516 14.8635 19.8107C15.1665 19.4698 15.3961 19.136 15.5524 18.8093C15.7086 18.4779 15.7868 18.1204 15.7868 17.7368C15.7868 17.3107 15.6897 16.9438 15.4956 16.636C15.3014 16.3235 15.0363 16.0844 14.7001 15.9187C14.3639 15.7482 13.9828 15.663 13.5567 15.663C13.1116 15.663 12.7233 15.7529 12.3919 15.9329C12.0604 16.1128 11.8048 16.3708 11.6248 16.707C11.4449 17.0432 11.355 17.4433 11.355 17.9073H8.43592C8.43592 16.9556 8.65135 16.1294 9.08223 15.4286C9.5131 14.7279 10.1168 14.1857 10.8933 13.8022C11.6698 13.4187 12.5647 13.2269 13.578 13.2269C14.6196 13.2269 15.5264 13.4116 16.2981 13.7809C17.0747 14.1455 17.6783 14.6521 18.1092 15.3008C18.5401 15.9494 18.7555 16.6928 18.7555 17.5309C18.7555 18.0801 18.6466 18.6223 18.4288 19.1573C18.2157 19.6923 17.8346 20.2866 17.2854 20.94C16.7361 21.5886 15.962 22.3675 14.9629 23.2766L12.8393 25.3576V25.457H18.9473V27.9712H8.57796ZM26.4881 28.1701C25.4843 28.1701 24.5894 27.9854 23.8035 27.6161C23.0222 27.2468 22.4019 26.7378 21.9427 26.0891C21.4834 25.4404 21.2443 24.6971 21.2253 23.859H24.2083C24.2414 24.4225 24.4782 24.8794 24.9185 25.2297C25.3589 25.5801 25.8821 25.7553 26.4881 25.7553C26.9711 25.7553 27.3972 25.6488 27.7665 25.4357C28.1406 25.2179 28.4318 24.9172 28.6401 24.5337C28.8532 24.1455 28.9597 23.7004 28.9597 23.1985C28.9597 22.6871 28.8508 22.2373 28.633 21.8491C28.4199 21.4608 28.124 21.1578 27.7452 20.94C27.3664 20.7222 26.9332 20.6109 26.4455 20.6062C26.0194 20.6062 25.6051 20.6938 25.2026 20.8689C24.8049 21.0441 24.4947 21.2832 24.2722 21.5863L21.5378 21.0962L22.2268 13.4258H31.1188V15.94H24.7623L24.3858 19.5834H24.4711C24.7268 19.2236 25.1126 18.9253 25.6287 18.6886C26.1448 18.4518 26.7225 18.3334 27.3617 18.3334C28.2376 18.3334 29.0189 18.5394 29.7054 18.9513C30.392 19.3633 30.9341 19.9291 31.3319 20.6488C31.7296 21.3637 31.9261 22.1876 31.9214 23.1204C31.9261 24.1005 31.6988 24.9717 31.2395 25.734C30.785 26.4916 30.1482 27.0882 29.329 27.5238C28.5146 27.9546 27.5677 28.1701 26.4881 28.1701Z" fill="#1b1b1f"/>
</svg>
