<svg width="41" height="41" viewBox="0 0 41 41" fill="none" xmlns="http://www.w3.org/2000/svg">
<path d="M20.399 40.9712C17.566 40.9712 14.933 40.4622 12.499 39.4462C10.066 38.4292 7.94899 37.0212 6.14899 35.2212C4.34899 33.4212 2.941 31.3042 1.924 28.8712C0.907996 26.4372 0.398987 23.8042 0.398987 20.9712C0.398987 18.1712 0.907996 15.5542 1.924 13.1212C2.941 10.6872 4.34899 8.57122 6.14899 6.77122C7.94899 4.97122 10.066 3.55422 12.499 2.52122C14.933 1.48722 17.566 0.971222 20.399 0.971222C23.199 0.971222 25.816 1.48722 28.249 2.52122C30.683 3.55422 32.799 4.97122 34.599 6.77122C36.399 8.57122 37.816 10.6872 38.849 13.1212C39.883 15.5542 40.399 18.1712 40.399 20.9712C40.399 23.8042 39.883 26.4372 38.849 28.8712C37.816 31.3042 36.399 33.4212 34.599 35.2212C32.799 37.0212 30.683 38.4292 28.249 39.4462C25.816 40.4622 23.199 40.9712 20.399 40.9712ZM20.399 37.9712C25.066 37.9712 29.066 36.3042 32.399 32.9712C35.733 29.6372 37.399 25.6372 37.399 20.9712C37.399 16.3042 35.733 12.3042 32.399 8.97121C29.066 5.63721 25.066 3.97121 20.399 3.97121C15.733 3.97121 11.733 5.63721 8.39899 8.97121C5.06599 12.3042 3.39899 16.3042 3.39899 20.9712C3.39899 25.6372 5.06599 29.6372 8.39899 32.9712C11.733 36.3042 15.733 37.9712 20.399 37.9712Z" fill="#333335"/>
<path d="M8.35779 25.4144V22.9925L14.4302 13.4258H16.5183V16.778H15.2825L11.4544 22.8363V22.9499H20.0836V25.4144H8.35779ZM15.3393 27.9712V24.6758L15.3961 23.6033V13.4258H18.2797V27.9712H15.3393ZM27.4452 28.1701C26.4414 28.1701 25.5465 27.9854 24.7605 27.6161C23.9792 27.2468 23.359 26.7378 22.8997 26.0891C22.4404 25.4404 22.2013 24.6971 22.1824 23.859H25.1653C25.1985 24.4225 25.4352 24.8794 25.8755 25.2297C26.3159 25.5801 26.8391 25.7553 27.4452 25.7553C27.9281 25.7553 28.3542 25.6488 28.7236 25.4357C29.0976 25.2179 29.3888 24.9172 29.5971 24.5337C29.8102 24.1455 29.9167 23.7004 29.9167 23.1985C29.9167 22.6871 29.8078 22.2373 29.59 21.8491C29.377 21.4608 29.081 21.1578 28.7023 20.94C28.3235 20.7222 27.8902 20.6109 27.4025 20.6062C26.9764 20.6062 26.5621 20.6938 26.1596 20.8689C25.7619 21.0441 25.4518 21.2832 25.2292 21.5863L22.4949 21.0962L23.1838 13.4258H32.0758V15.94H25.7193L25.3429 19.5834H25.4281C25.6838 19.2236 26.0697 18.9253 26.5858 18.6886C27.1019 18.4518 27.6795 18.3334 28.3187 18.3334C29.1947 18.3334 29.9759 18.5394 30.6625 18.9513C31.349 19.3633 31.8912 19.9291 32.2889 20.6488C32.6866 21.3637 32.8831 22.1876 32.8784 23.1204C32.8831 24.1005 32.6559 24.9717 32.1966 25.734C31.742 26.4916 31.1052 27.0882 30.2861 27.5238C29.4717 27.9546 28.5247 28.1701 27.4452 28.1701Z" fill="#333335"/>
</svg>
