<svg width="41" height="41" viewBox="0 0 41 41" fill="none" xmlns="http://www.w3.org/2000/svg">
<path d="M20.399 40.9712C17.566 40.9712 14.933 40.4622 12.499 39.4462C10.066 38.4292 7.94899 37.0212 6.14899 35.2212C4.34899 33.4212 2.941 31.3042 1.924 28.8712C0.907996 26.4372 0.398987 23.8042 0.398987 20.9712C0.398987 18.1712 0.907996 15.5542 1.924 13.1212C2.941 10.6872 4.34899 8.57122 6.14899 6.77122C7.94899 4.97122 10.066 3.55422 12.499 2.52122C14.933 1.48722 17.566 0.971222 20.399 0.971222C23.199 0.971222 25.816 1.48722 28.249 2.52122C30.683 3.55422 32.799 4.97122 34.599 6.77122C36.399 8.57122 37.816 10.6872 38.849 13.1212C39.883 15.5542 40.399 18.1712 40.399 20.9712C40.399 23.8042 39.883 26.4372 38.849 28.8712C37.816 31.3042 36.399 33.4212 34.599 35.2212C32.799 37.0212 30.683 38.4292 28.249 39.4462C25.816 40.4622 23.199 40.9712 20.399 40.9712ZM20.399 37.9712C25.066 37.9712 29.066 36.3042 32.399 32.9712C35.733 29.6372 37.399 25.6372 37.399 20.9712C37.399 16.3042 35.733 12.3042 32.399 8.97121C29.066 5.63721 25.066 3.97121 20.399 3.97121C15.733 3.97121 11.733 5.63721 8.39899 8.97121C5.06599 12.3042 3.39899 16.3042 3.39899 20.9712C3.39899 25.6372 5.06599 29.6372 8.39899 32.9712C11.733 36.3042 15.733 37.9712 20.399 37.9712Z" fill="#1b1b1f"/>
<path d="M14.1604 28.1701C13.4122 28.1654 12.6902 28.0399 11.9942 27.7937C11.3029 27.5475 10.6826 27.1474 10.1334 26.5934C9.58412 26.0394 9.14851 25.3055 8.82654 24.3917C8.50931 23.4779 8.35069 22.3557 8.35069 21.0252C8.35543 19.8036 8.4951 18.7122 8.76973 17.7511C9.04908 16.7851 9.44681 15.966 9.96291 15.2937C10.4837 14.6213 11.1064 14.11 11.8308 13.7596C12.5552 13.4045 13.3673 13.2269 14.2669 13.2269C15.2375 13.2269 16.0945 13.4163 16.8379 13.7951C17.5813 14.1691 18.1779 14.6781 18.6277 15.3221C19.0822 15.966 19.3568 16.6881 19.4515 17.4883H16.4189C16.3005 16.9816 16.0519 16.5839 15.6731 16.2951C15.2943 16.0063 14.8256 15.8618 14.2669 15.8618C13.3199 15.8618 12.6002 16.2738 12.1078 17.0976C11.6201 17.9215 11.3715 19.0413 11.3621 20.457H11.4615C11.6793 20.0261 11.9729 19.6592 12.3422 19.3562C12.7162 19.0484 13.14 18.814 13.6135 18.653C14.0917 18.4873 14.596 18.4045 15.1263 18.4045C15.988 18.4045 16.755 18.6081 17.4274 19.0153C18.0997 19.4177 18.63 19.9717 19.0183 20.6772C19.4066 21.3827 19.6007 22.19 19.6007 23.0991C19.6007 24.0839 19.3711 24.9599 18.9118 25.7269C18.4572 26.4939 17.8204 27.0953 17.0013 27.5309C16.1869 27.9618 15.2399 28.1748 14.1604 28.1701ZM14.1461 25.7553C14.6196 25.7553 15.0434 25.6417 15.4175 25.4144C15.7915 25.1871 16.0851 24.8794 16.2981 24.4911C16.5112 24.1029 16.6177 23.6672 16.6177 23.1843C16.6177 22.7013 16.5112 22.2681 16.2981 21.8846C16.0898 21.5011 15.801 21.1957 15.4317 20.9684C15.0623 20.7411 14.6409 20.6275 14.1675 20.6275C13.8123 20.6275 13.4833 20.6938 13.1802 20.8263C12.8819 20.9589 12.6192 21.1436 12.3919 21.3803C12.1693 21.6171 11.9942 21.8917 11.8663 22.2042C11.7385 22.5119 11.6746 22.841 11.6746 23.1914C11.6746 23.6601 11.7811 24.0886 11.9942 24.4769C12.212 24.8652 12.5055 25.1753 12.8748 25.4073C13.2489 25.6393 13.6727 25.7553 14.1461 25.7553ZM27.4842 28.2908C26.2626 28.2861 25.2115 27.9854 24.3308 27.3888C23.4549 26.7922 22.7801 25.9281 22.3067 24.7965C21.8379 23.6649 21.6059 22.3036 21.6106 20.7127C21.6106 19.1265 21.845 17.7747 22.3138 16.6573C22.7872 15.5399 23.462 14.69 24.3379 14.1076C25.2186 13.5205 26.2674 13.2269 27.4842 13.2269C28.7011 13.2269 29.7475 13.5205 30.6234 14.1076C31.5041 14.6947 32.1812 15.547 32.6547 16.6644C33.1282 17.7771 33.3625 19.1265 33.3578 20.7127C33.3578 22.3083 33.1211 23.672 32.6476 24.8036C32.1788 25.9352 31.5065 26.7993 30.6305 27.3959C29.7546 27.9925 28.7058 28.2908 27.4842 28.2908ZM27.4842 25.7411C28.3175 25.7411 28.9828 25.3221 29.48 24.484C29.9771 23.6459 30.2233 22.3888 30.2186 20.7127C30.2186 19.6095 30.105 18.6909 29.8777 17.957C29.6551 17.2231 29.3379 16.6715 28.926 16.3022C28.5188 15.9329 28.0382 15.7482 27.4842 15.7482C26.6556 15.7482 25.9927 16.1625 25.4956 16.9911C24.9984 17.8197 24.7475 19.0602 24.7427 20.7127C24.7427 21.8301 24.854 22.7629 25.0765 23.511C25.3038 24.2544 25.6234 24.8131 26.0354 25.1871C26.4473 25.5564 26.9302 25.7411 27.4842 25.7411Z" fill="#1b1b1f"/>
</svg>
