<svg width="64" height="62" viewBox="0 0 64 62" fill="none" xmlns="http://www.w3.org/2000/svg">
<path d="M59.9583 27.8058V56.2396C59.9583 57.5816 59.4881 58.7559 58.5478 59.7624C57.6074 60.7689 56.5103 61.2722 55.2565 61.2722H8.15955C6.90573 61.2722 5.80863 60.7689 4.86825 59.7624C3.92788 58.7559 3.4577 57.5816 3.4577 56.2396V27.8058C1.9949 26.4637 1.02841 24.8142 0.55822 22.8571C0.0880345 20.9 0.140277 18.9429 0.714948 16.9858L4.08461 5.66257C4.50255 4.15281 5.23395 2.97855 6.27881 2.13979C7.32367 1.30103 8.52525 0.881653 9.88357 0.881653H53.219C54.6818 0.881653 55.9618 1.31501 57.0589 2.18173C58.156 3.04844 58.9135 4.20872 59.3314 5.66257L62.7794 16.9858C63.3541 18.9429 63.3933 20.9 62.897 22.8571C62.4007 24.8142 61.4211 26.4637 59.9583 27.8058ZM38.8 25.2056C40.315 25.2056 41.595 24.6744 42.6398 23.612C43.6847 22.5496 44.1026 21.2635 43.8937 19.7537L41.9346 5.9142H34.0981V19.7537C34.0981 21.2075 34.5422 22.4797 35.4303 23.57C36.3184 24.6604 37.4417 25.2056 38.8 25.2056ZM24.1459 25.2056C25.6087 25.2056 26.8494 24.6744 27.8682 23.612C28.8869 22.5496 29.3963 21.2635 29.3963 19.7537V5.9142H21.5598L19.6007 19.7537C19.3918 21.2075 19.7575 22.4797 20.6978 23.57C21.6382 24.6604 22.7875 25.2056 24.1459 25.2056ZM9.88357 25.2056C11.1374 25.2056 12.2214 24.7443 13.1357 23.8217C14.0499 22.899 14.5854 21.7667 14.7422 20.4247L16.7796 5.9142H8.9432L5.33844 18.1601C4.81601 19.8935 5.02498 21.5011 5.96535 22.9829C6.90573 24.4647 8.2118 25.2056 9.88357 25.2056ZM53.5325 25.2056C55.2042 25.2056 56.5234 24.4787 57.4899 23.0248C58.4563 21.571 58.6784 19.9494 58.156 18.1601L54.5512 5.9142H46.7148L48.7522 20.4247C48.909 21.7667 49.4445 22.899 50.3587 23.8217C51.273 24.7443 52.3309 25.2056 53.5325 25.2056ZM8.15955 56.2396H55.2565V30.1543C55.3087 30.2102 55.1389 30.2382 54.7471 30.2382C54.3553 30.2382 53.9504 30.2382 53.5325 30.2382C52.2264 30.2382 50.9856 29.9446 49.8102 29.3575C48.6347 28.7703 47.4723 27.8617 46.323 26.6315C45.4871 27.7498 44.4422 28.6305 43.1884 29.2736C41.9346 29.9166 40.5501 30.2382 39.0351 30.2382C37.4678 30.2382 36.1225 30.0005 34.9993 29.5252C33.8761 29.0499 32.7921 28.2531 31.7472 27.1348C30.9636 28.1413 29.9709 28.9101 28.7694 29.4413C27.5678 29.9726 26.2095 30.2382 24.6944 30.2382C23.0749 30.2382 21.6382 29.9306 20.3844 29.3155C19.1306 28.7004 18.0596 27.8058 17.1714 26.6315C15.9176 27.8058 14.6899 28.7004 13.4883 29.3155C12.2867 29.9306 11.0852 30.2382 9.88357 30.2382C9.51787 30.2382 9.16523 30.2382 8.82565 30.2382C8.48607 30.2382 8.26404 30.2102 8.15955 30.1543V56.2396ZM55.2565 56.2396H8.15955C8.26404 56.2396 8.48607 56.2396 8.82565 56.2396C9.16523 56.2396 9.51787 56.2396 9.88357 56.2396C10.7717 56.2396 11.8296 56.2396 13.0573 56.2396C14.285 56.2396 15.6564 56.2396 17.1714 56.2396C17.6416 56.2396 18.1641 56.2396 18.7387 56.2396C19.3134 56.2396 19.9273 56.2396 20.5803 56.2396C21.2333 56.2396 21.8994 56.2396 22.5786 56.2396C23.2577 56.2396 23.963 56.2396 24.6944 56.2396C25.2691 56.2396 25.8699 56.2396 26.4968 56.2396C27.1237 56.2396 27.7506 56.2396 28.3775 56.2396C29.0044 56.2396 29.6052 56.2396 30.1799 56.2396C30.7546 56.2396 31.277 56.2396 31.7472 56.2396C32.8965 56.2396 34.0459 56.2396 35.1952 56.2396C36.3446 56.2396 37.6245 56.2396 39.0351 56.2396C39.7665 56.2396 40.4848 56.2396 41.1901 56.2396C41.8954 56.2396 42.5615 56.2396 43.1884 56.2396C43.8153 56.2396 44.39 56.2396 44.9124 56.2396C45.4348 56.2396 45.905 56.2396 46.323 56.2396C47.5245 56.2396 48.7261 56.2396 49.9277 56.2396C51.1293 56.2396 52.3309 56.2396 53.5325 56.2396C53.9504 56.2396 54.3553 56.2396 54.7471 56.2396C55.1389 56.2396 55.3087 56.2396 55.2565 56.2396Z" fill="#1b1b1f"/>
</svg>
