<svg width="65" height="27" viewBox="0 0 65 27" fill="none" xmlns="http://www.w3.org/2000/svg">
<g filter="url(#filter0_d_26_153)">
<path d="M55.1414 16.9368L20.7756 17.0022C21.9434 15.0842 22.6103 12.909 22.6052 10.5985C22.6001 8.28804 21.9236 6.11539 20.7473 4.20184L55.1131 4.13648C59.2584 4.12859 62.6245 6.98735 62.6323 10.5224C62.6402 14.0574 59.2867 16.929 55.1414 16.9368Z" fill="#8E7F7F"/>
</g>
<g filter="url(#filter1_d_26_153)">
<path d="M12.6057 0.841414C18.4645 0.830271 23.224 5.29838 23.2362 10.8212C23.2484 16.344 18.5088 20.8302 12.6499 20.8414C6.79106 20.8525 2.03159 16.3844 2.01937 10.8616C2.00714 5.33873 6.74678 0.852557 12.6057 0.841414Z" fill="#999999"/>
</g>
<defs>
<filter id="filter0_d_26_153" x="18.7473" y="4.13644" width="45.885" height="18.8658" filterUnits="userSpaceOnUse" color-interpolation-filters="sRGB">
<feFlood flood-opacity="0" result="BackgroundImageFix"/>
<feColorMatrix in="SourceAlpha" type="matrix" values="0 0 0 0 0 0 0 0 0 0 0 0 0 0 0 0 0 0 127 0" result="hardAlpha"/>
<feOffset dy="4"/>
<feGaussianBlur stdDeviation="1"/>
<feComposite in2="hardAlpha" operator="out"/>
<feColorMatrix type="matrix" values="0 0 0 0 0 0 0 0 0 0 0 0 0 0 0 0 0 0 0.25 0"/>
<feBlend mode="normal" in2="BackgroundImageFix" result="effect1_dropShadow_26_153"/>
<feBlend mode="normal" in="SourceGraphic" in2="effect1_dropShadow_26_153" result="shape"/>
</filter>
<filter id="filter1_d_26_153" x="0.0192871" y="0.8414" width="25.217" height="26" filterUnits="userSpaceOnUse" color-interpolation-filters="sRGB">
<feFlood flood-opacity="0" result="BackgroundImageFix"/>
<feColorMatrix in="SourceAlpha" type="matrix" values="0 0 0 0 0 0 0 0 0 0 0 0 0 0 0 0 0 0 127 0" result="hardAlpha"/>
<feOffset dy="4"/>
<feGaussianBlur stdDeviation="1"/>
<feComposite in2="hardAlpha" operator="out"/>
<feColorMatrix type="matrix" values="0 0 0 0 0 0 0 0 0 0 0 0 0 0 0 0 0 0 0.25 0"/>
<feBlend mode="normal" in2="BackgroundImageFix" result="effect1_dropShadow_26_153"/>
<feBlend mode="normal" in="SourceGraphic" in2="effect1_dropShadow_26_153" result="shape"/>
</filter>
</defs>
</svg>
