<svg width="30" height="28" viewBox="0 0 30 28" fill="none" xmlns="http://www.w3.org/2000/svg">
<g filter="url(#filter0_d_26_156)">
<path d="M14.7793 19.9829C11.785 19.9829 9.23993 19.0115 7.14396 17.0687C5.04799 15.1259 4 12.7668 4 9.99143C4 7.21603 5.04799 4.85694 7.14396 2.91417C9.23993 0.971389 11.785 0 14.7793 0C14.939 0 15.1087 0.00462571 15.2883 0.013877C15.468 0.0231284 15.6975 0.0370052 15.977 0.0555079C15.2584 0.647593 14.6994 1.37845 14.3002 2.24807C13.901 3.1177 13.7014 4.03358 13.7014 4.99571C13.7014 6.66095 14.3302 8.0764 15.5877 9.24207C16.8453 10.4077 18.3724 10.9906 20.1689 10.9906C21.2069 10.9906 22.195 10.8194 23.1332 10.4771C24.0714 10.1348 24.8599 9.65838 25.4987 9.04779C25.5187 9.26982 25.5336 9.45022 25.5436 9.58899C25.5536 9.72776 25.5586 9.86191 25.5586 9.99143C25.5586 12.7668 24.5106 15.1259 22.4146 17.0687C20.3187 19.0115 17.7735 19.9829 14.7793 19.9829ZM14.7793 18.3176C16.9551 18.3176 18.8515 17.6932 20.4684 16.4442C22.0853 15.1953 23.0933 13.729 23.4926 12.0452C22.9935 12.2488 22.4595 12.4014 21.8906 12.5032C21.3217 12.6049 20.7478 12.6558 20.1689 12.6558C17.8733 12.6558 15.9221 11.9111 14.3152 10.4216C12.7083 8.93215 11.9048 7.12352 11.9048 4.99571C11.9048 4.55165 11.9547 4.07521 12.0545 3.56638C12.1543 3.05756 12.334 2.47935 12.5935 1.83176C10.6373 2.33133 9.01537 3.34435 7.72784 4.87082C6.44031 6.39729 5.79655 8.10416 5.79655 9.99143C5.79655 12.3043 6.66987 14.2702 8.41652 15.8891C10.1632 17.5081 12.2841 18.3176 14.7793 18.3176Z" fill="#E3E5E8"/>
</g>
<defs>
<filter id="filter0_d_26_156" x="0" y="0" width="29.5586" height="27.9828" filterUnits="userSpaceOnUse" color-interpolation-filters="sRGB">
<feFlood flood-opacity="0" result="BackgroundImageFix"/>
<feColorMatrix in="SourceAlpha" type="matrix" values="0 0 0 0 0 0 0 0 0 0 0 0 0 0 0 0 0 0 127 0" result="hardAlpha"/>
<feOffset dy="4"/>
<feGaussianBlur stdDeviation="2"/>
<feComposite in2="hardAlpha" operator="out"/>
<feColorMatrix type="matrix" values="0 0 0 0 0 0 0 0 0 0 0 0 0 0 0 0 0 0 0.25 0"/>
<feBlend mode="normal" in2="BackgroundImageFix" result="effect1_dropShadow_26_156"/>
<feBlend mode="normal" in="SourceGraphic" in2="effect1_dropShadow_26_156" result="shape"/>
</filter>
</defs>
</svg>
