<svg width="55" height="62" viewBox="0 0 55 62" fill="none" xmlns="http://www.w3.org/2000/svg">
<path d="M5.93772 35.8446C5.93772 39.182 6.72523 42.3207 8.30026 45.2607C9.87529 48.2008 12.072 50.6509 14.8905 52.6109C14.6695 51.9752 14.5037 51.3263 14.3931 50.6641C14.2826 50.0019 14.2273 49.353 14.2273 48.7173C14.2273 47.0221 14.5589 45.4329 15.2221 43.9496C15.8853 42.4664 16.8524 41.1155 18.1235 39.8971L27.4907 31.0769L36.858 39.8971C38.1291 41.1155 39.0962 42.4664 39.7594 43.9496C40.4226 45.4329 40.7541 47.0221 40.7541 48.7173C40.7541 49.353 40.6989 50.0019 40.5883 50.6641C40.4778 51.3263 40.312 51.9752 40.091 52.6109C42.9094 50.6509 45.1062 48.2008 46.6812 45.2607C48.2562 42.3207 49.0438 39.182 49.0438 35.8446C49.0438 32.984 48.4082 30.1896 47.1371 27.4614C45.8661 24.7333 44.0424 22.2302 41.666 19.9523C40.5054 20.747 39.2896 21.3694 38.0186 21.8197C36.7475 22.27 35.4764 22.4951 34.2053 22.4951C30.8342 22.4951 28.0434 21.3959 25.8328 19.1975C23.6222 16.999 22.517 14.2311 22.517 10.8938V9.30454C19.9748 11.0527 17.6814 12.9862 15.6366 15.1052C13.5918 17.2242 11.851 19.4358 10.4141 21.7402C8.97725 24.0446 7.87196 26.402 7.09826 28.8123C6.32457 31.2226 5.93772 33.5667 5.93772 35.8446ZM27.4907 37.7517L21.6051 43.3139C20.8314 44.0556 20.2373 44.8767 19.8228 45.7772C19.4084 46.6778 19.2011 47.6578 19.2011 48.7173C19.2011 50.8892 20.0024 52.7301 21.6051 54.2399C23.2078 55.7496 25.1696 56.5045 27.4907 56.5045C29.8118 56.5045 31.7737 55.7496 33.3764 54.2399C34.979 52.7301 35.7804 50.8892 35.7804 48.7173C35.7804 47.6578 35.5731 46.6778 35.1586 45.7772C34.7442 44.8767 34.1501 44.0556 33.3764 43.3139L27.4907 37.7517ZM27.4907 0.881653V11.3705C27.4907 13.1717 28.1401 14.6814 29.4388 15.8998C30.7375 17.1182 32.3264 17.7274 34.2053 17.7274C35.2001 17.7274 36.1258 17.5288 36.9824 17.1315C37.839 16.7342 38.5988 16.1382 39.262 15.3436L40.7541 13.5954C44.8437 15.8204 48.0766 18.9194 50.453 22.8924C52.8294 26.8655 54.0175 31.1829 54.0175 35.8446C54.0175 42.9431 51.4478 48.9557 46.3082 53.8823C41.1686 58.8089 34.8961 61.2722 27.4907 61.2722C20.0853 61.2722 13.8129 58.8089 8.67329 53.8823C3.53373 48.9557 0.963943 42.9431 0.963943 35.8446C0.963943 29.0639 3.3403 22.5348 8.09302 16.2574C12.8457 9.97996 19.3116 4.85471 27.4907 0.881653Z" fill="#1b1b1f"/>
</svg>
