<svg width="35" height="33" viewBox="0 0 35 33" fill="none" xmlns="http://www.w3.org/2000/svg">
<g filter="url(#filter0_d_26_132)">
<path d="M17.4741 16.4631C18.6582 16.4631 19.6688 16.0752 20.5058 15.2994C21.3428 14.5235 21.7613 13.5868 21.7613 12.4893C21.7613 11.3917 21.3428 10.455 20.5058 9.67919C19.6688 8.90335 18.6582 8.51542 17.4741 8.51542C16.29 8.51542 15.2795 8.90335 14.4424 9.67919C13.6054 10.455 13.1869 11.3917 13.1869 12.4893C13.1869 13.5868 13.6054 14.5235 14.4424 15.2994C15.2795 16.0752 16.29 16.4631 17.4741 16.4631ZM17.4741 18.1662C15.7796 18.1662 14.3353 17.6127 13.141 16.5057C11.9467 15.3987 11.3495 14.0599 11.3495 12.4893C11.3495 10.9187 11.9467 9.57985 13.141 8.47284C14.3353 7.36584 15.7796 6.81234 17.4741 6.81234C19.1686 6.81234 20.613 7.36584 21.8073 8.47284C23.0016 9.57985 23.5987 10.9187 23.5987 12.4893C23.5987 14.0599 23.0016 15.3987 21.8073 16.5057C20.613 17.6127 19.1686 18.1662 17.4741 18.1662ZM4.91869 13.3408C4.65329 13.3408 4.43383 13.2604 4.2603 13.0996C4.08677 12.9387 4 12.7353 4 12.4893C4 12.2433 4.08677 12.0399 4.2603 11.879C4.43383 11.7182 4.65329 11.6377 4.91869 11.6377L7.98099 11.6377C8.24639 11.6377 8.46585 11.7182 8.63938 11.879C8.81291 12.0399 8.89968 12.2433 8.89968 12.4893C8.89968 12.7353 8.81291 12.9387 8.63938 13.0996C8.46585 13.2604 8.24639 13.3408 7.98099 13.3408L4.91869 13.3408ZM26.9672 13.3408C26.7018 13.3408 26.4824 13.2604 26.3088 13.0996C26.1353 12.9387 26.0486 12.7353 26.0486 12.4893C26.0486 12.2433 26.1353 12.0399 26.3088 11.879C26.4824 11.7182 26.7018 11.6377 26.9672 11.6377L30.0295 11.6377C30.2949 11.6377 30.5144 11.7182 30.6879 11.879C30.8615 12.0399 30.9482 12.2433 30.9482 12.4893C30.9482 12.7353 30.8615 12.9387 30.6879 13.0996C30.5144 13.2604 30.2949 13.3408 30.0295 13.3408L26.9672 13.3408ZM17.4741 4.54156C17.2087 4.54156 16.9893 4.46113 16.8157 4.30029C16.6422 4.13944 16.5554 3.93602 16.5554 3.69002L16.5554 0.851542C16.5554 0.605541 16.6422 0.402117 16.8157 0.24127C16.9893 0.0804234 17.2087 1.61545e-09 17.4741 1.6479e-09C17.7395 1.68036e-09 17.959 0.0804234 18.1325 0.24127C18.306 0.402117 18.3928 0.605541 18.3928 0.851542L18.3928 3.69002C18.3928 3.93602 18.306 4.13944 18.1325 4.30029C17.959 4.46113 17.7395 4.54156 17.4741 4.54156ZM17.4741 24.9786C17.2087 24.9786 16.9893 24.8981 16.8157 24.7373C16.6422 24.5765 16.5554 24.373 16.5554 24.127L16.5554 21.2886C16.5554 21.0426 16.6422 20.8391 16.8157 20.6783C16.9893 20.5174 17.2087 20.437 17.4741 20.437C17.7395 20.437 17.959 20.5174 18.1325 20.6783C18.306 20.8391 18.3928 21.0426 18.3928 21.2886L18.3928 24.127C18.3928 24.373 18.306 24.5765 18.1325 24.7373C17.959 24.8981 17.7395 24.9786 17.4741 24.9786ZM10.1246 6.86911L8.37909 5.27956C8.19535 5.10925 8.10858 4.90583 8.11879 4.66929C8.129 4.43275 8.21576 4.22933 8.37909 4.05902C8.56282 3.88871 8.78229 3.80355 9.03748 3.80355C9.29267 3.80355 9.51214 3.88871 9.69588 4.05902L11.4108 5.67695C11.5741 5.84726 11.6557 6.04595 11.6557 6.27303C11.6557 6.5001 11.5741 6.68934 11.4108 6.84072C11.2474 7.01103 11.0382 7.09618 10.783 7.09618C10.5278 7.09618 10.3083 7.02049 10.1246 6.86911ZM25.2524 20.9195L23.5375 19.3016C23.3741 19.1313 23.2925 18.9279 23.2925 18.6913C23.2925 18.4548 23.3844 18.2608 23.5681 18.1095C23.7314 17.9392 23.9356 17.854 24.1806 17.854C24.4255 17.854 24.6399 17.9392 24.8236 18.1095L26.5691 19.699C26.7529 19.8693 26.8396 20.0727 26.8294 20.3093C26.8192 20.5458 26.7325 20.7492 26.5691 20.9195C26.3854 21.0899 26.1659 21.175 25.9108 21.175C25.6556 21.175 25.4361 21.0899 25.2524 20.9195ZM23.5375 6.86911C23.3537 6.6988 23.2619 6.5001 23.2619 6.27303C23.2619 6.04595 23.3537 5.84726 23.5375 5.67695L25.2524 4.05902C25.4361 3.88871 25.6556 3.80829 25.9108 3.81775C26.1659 3.82721 26.3854 3.90763 26.5691 4.05902C26.7529 4.22933 26.8448 4.43275 26.8448 4.66929C26.8448 4.90583 26.7529 5.10925 26.5691 5.27956L24.8236 6.86911C24.6603 7.02049 24.4511 7.09618 24.1959 7.09618C23.9407 7.09618 23.7212 7.02049 23.5375 6.86911ZM8.37909 20.9195C8.19535 20.7492 8.10348 20.5458 8.10348 20.3093C8.10348 20.0727 8.19535 19.8693 8.37909 19.699L10.1246 18.1095C10.3083 17.9392 10.5227 17.854 10.7677 17.854C11.0127 17.854 11.227 17.9392 11.4108 18.1095C11.5945 18.2798 11.6864 18.4785 11.6864 18.7055C11.6864 18.9326 11.5945 19.1313 11.4108 19.3016L9.69588 20.9195C9.51214 21.0899 9.29267 21.1703 9.03748 21.1608C8.78229 21.1514 8.56282 21.0709 8.37909 20.9195Z" fill="#333335"/>
</g>
<defs>
<filter id="filter0_d_26_132" x="0" y="0" width="34.9482" height="32.9786" filterUnits="userSpaceOnUse" color-interpolation-filters="sRGB">
<feFlood flood-opacity="0" result="BackgroundImageFix"/>
<feColorMatrix in="SourceAlpha" type="matrix" values="0 0 0 0 0 0 0 0 0 0 0 0 0 0 0 0 0 0 127 0" result="hardAlpha"/>
<feOffset dy="4"/>
<feGaussianBlur stdDeviation="2"/>
<feComposite in2="hardAlpha" operator="out"/>
<feColorMatrix type="matrix" values="0 0 0 0 0 0 0 0 0 0 0 0 0 0 0 0 0 0 0.25 0"/>
<feBlend mode="normal" in2="BackgroundImageFix" result="effect1_dropShadow_26_132"/>
<feBlend mode="normal" in="SourceGraphic" in2="effect1_dropShadow_26_132" result="shape"/>
</filter>
</defs>
</svg>
