<svg width="54" height="54" viewBox="0 0 54 54" fill="none" xmlns="http://www.w3.org/2000/svg">
<path d="M27 54C19.5 54 13.125 51.375 7.875 46.125C2.625 40.875 0 34.5 0 27C0 19.5 2.625 13.125 7.875 7.875C13.125 2.625 19.5 0 27 0C27.4 0 27.825 0.0125001 28.275 0.0375001C28.725 0.0625001 29.3 0.0999999 30 0.15C28.2 1.75 26.8 3.725 25.8 6.075C24.8 8.425 24.3 10.9 24.3 13.5C24.3 18 25.875 21.825 29.025 24.975C32.175 28.125 36 29.7 40.5 29.7C43.1 29.7 45.575 29.2375 47.925 28.3125C50.275 27.3875 52.25 26.1 53.85 24.45C53.9 25.05 53.9375 25.5375 53.9625 25.9125C53.9875 26.2875 54 26.65 54 27C54 34.5 51.375 40.875 46.125 46.125C40.875 51.375 34.5 54 27 54ZM27 49.5C32.45 49.5 37.2 47.8125 41.25 44.4375C45.3 41.0625 47.825 37.1 48.825 32.55C47.575 33.1 46.2375 33.5125 44.8125 33.7875C43.3875 34.0625 41.95 34.2 40.5 34.2C34.75 34.2 29.8625 32.1875 25.8375 28.1625C21.8125 24.1375 19.8 19.25 19.8 13.5C19.8 12.3 19.925 11.0125 20.175 9.6375C20.425 8.2625 20.875 6.7 21.525 4.95C16.625 6.3 12.5625 9.0375 9.3375 13.1625C6.1125 17.2875 4.5 21.9 4.5 27C4.5 33.25 6.6875 38.5625 11.0625 42.9375C15.4375 47.3125 20.75 49.5 27 49.5Z" fill="#333335"/>
</svg>
