<svg width="40" height="40" viewBox="0 0 40 40" fill="none" xmlns="http://www.w3.org/2000/svg">
<path fill-rule="evenodd" clip-rule="evenodd" d="M0 20C0 8.95767 8.95767 0 20 0C31.0423 0 40 8.95767 40 20C40 31.0423 31.0423 40 20 40C8.95767 40 0 31.0423 0 20ZM20 3.07693C10.6577 3.07693 3.07693 10.6577 3.07693 20C3.07693 29.3423 10.6577 36.9231 20 36.9231C29.3423 36.9231 36.9231 29.3423 36.9231 20C36.9231 10.6577 29.3423 3.07693 20 3.07693Z" fill="#333335"/>
<path fill-rule="evenodd" clip-rule="evenodd" d="M15.3846 12.3077C16.2346 12.3077 16.9231 12.9962 16.9231 13.8462V26.1538C16.9231 27.0038 16.2346 27.6923 15.3846 27.6923C14.5346 27.6923 13.8462 27.0038 13.8462 26.1538V13.8462C13.8462 12.9962 14.5346 12.3077 15.3846 12.3077Z" fill="#333335"/>
<path fill-rule="evenodd" clip-rule="evenodd" d="M24.6154 12.3077C25.4654 12.3077 26.1538 12.9962 26.1538 13.8462V26.1538C26.1538 27.0038 25.4654 27.6923 24.6154 27.6923C23.7654 27.6923 23.0769 27.0038 23.0769 26.1538V13.8462C23.0769 12.9962 23.7654 12.3077 24.6154 12.3077Z" fill="#333335"/>
</svg>
