<svg width="41" height="41" viewBox="0 0 41 41" fill="none" xmlns="http://www.w3.org/2000/svg">
<path d="M15.6939 29.371L29.0439 20.871L15.6939 12.371V29.371ZM20.5439 40.871C17.8105 40.871 15.2272 40.346 12.7939 39.296C10.3605 38.246 8.23552 36.8126 6.41885 34.996C4.60219 33.1793 3.16885 31.0543 2.11885 28.621C1.06885 26.1876 0.543854 23.6043 0.543854 20.871C0.543854 18.1376 1.06885 15.5543 2.11885 13.121C3.16885 10.6876 4.60219 8.56263 6.41885 6.74597C8.23552 4.9293 10.3605 3.49597 12.7939 2.44597C15.2272 1.39597 17.8105 0.870968 20.5439 0.870968C23.2772 0.870968 25.8605 1.39597 28.2939 2.44597C30.7272 3.49597 32.8522 4.9293 34.6689 6.74597C36.4855 8.56263 37.9189 10.6876 38.9689 13.121C40.0189 15.5543 40.5439 18.1376 40.5439 20.871C40.5439 23.6043 40.0189 26.1876 38.9689 28.621C37.9189 31.0543 36.4855 33.1793 34.6689 34.996C32.8522 36.8126 30.7272 38.246 28.2939 39.296C25.8605 40.346 23.2772 40.871 20.5439 40.871ZM20.5439 37.871C25.2105 37.871 29.2105 36.2043 32.5439 32.871C35.8772 29.5376 37.5439 25.5376 37.5439 20.871C37.5439 16.2043 35.8772 12.2043 32.5439 8.87097C29.2105 5.53763 25.2105 3.87097 20.5439 3.87097C15.8772 3.87097 11.8772 5.53763 8.54385 8.87097C5.21052 12.2043 3.54385 16.2043 3.54385 20.871C3.54385 25.5376 5.21052 29.5376 8.54385 32.871C11.8772 36.2043 15.8772 37.871 20.5439 37.871Z" fill="#1b1b1f"/>
</svg>
