<svg width="60" height="62" viewBox="0 0 60 62" fill="none" xmlns="http://www.w3.org/2000/svg">
<path d="M12.4716 49.7692C11.7808 49.7692 11.1763 49.5176 10.6582 49.0143C10.1401 48.5111 9.88109 47.924 9.88109 47.253C9.88109 46.5819 10.1401 45.9948 10.6582 45.4916C11.1763 44.9883 11.7808 44.7367 12.4716 44.7367C13.1624 44.7367 13.7668 44.9883 14.2849 45.4916C14.8031 45.9948 15.0621 46.5819 15.0621 47.253C15.0621 47.924 14.8031 48.5111 14.2849 49.0143C13.7668 49.5176 13.1624 49.7692 12.4716 49.7692ZM47.9986 49.7692C47.3078 49.7692 46.7033 49.5176 46.1852 49.0143C45.6671 48.5111 45.4081 47.924 45.4081 47.253C45.4081 46.5819 45.6671 45.9948 46.1852 45.4916C46.7033 44.9883 47.3078 44.7367 47.9986 44.7367C48.6894 44.7367 49.2938 44.9883 49.8119 45.4916C50.33 45.9948 50.5891 46.5819 50.5891 47.253C50.5891 47.924 50.33 48.5111 49.8119 49.0143C49.2938 49.5176 48.6894 49.7692 47.9986 49.7692ZM21.3533 61.2722C20.6625 61.2722 20.0581 61.0206 19.54 60.5173C19.0219 60.014 18.7628 59.4269 18.7628 58.7559C18.7628 58.0849 19.0219 57.4978 19.54 56.9945C20.0581 56.4913 20.6625 56.2396 21.3533 56.2396C22.0441 56.2396 22.6486 56.4913 23.1667 56.9945C23.6848 57.4978 23.9438 58.0849 23.9438 58.7559C23.9438 59.4269 23.6848 60.014 23.1667 60.5173C22.6486 61.0206 22.0441 61.2722 21.3533 61.2722ZM30.2351 49.7692C29.5443 49.7692 28.9398 49.5176 28.4217 49.0143C27.9036 48.5111 27.6446 47.924 27.6446 47.253C27.6446 46.5819 27.9036 45.9948 28.4217 45.4916C28.9398 44.9883 29.5443 44.7367 30.2351 44.7367C30.9259 44.7367 31.5303 44.9883 32.0484 45.4916C32.5665 45.9948 32.8256 46.5819 32.8256 47.253C32.8256 47.924 32.5665 48.5111 32.0484 49.0143C31.5303 49.5176 30.9259 49.7692 30.2351 49.7692ZM39.1168 61.2722C38.426 61.2722 37.8216 61.0206 37.3035 60.5173C36.7854 60.014 36.5263 59.4269 36.5263 58.7559C36.5263 58.0849 36.7854 57.4978 37.3035 56.9945C37.8216 56.4913 38.426 56.2396 39.1168 56.2396C39.8076 56.2396 40.4121 56.4913 40.9302 56.9945C41.4483 57.4978 41.7073 58.0849 41.7073 58.7559C41.7073 59.4269 41.4483 60.014 40.9302 60.5173C40.4121 61.0206 39.8076 61.2722 39.1168 61.2722ZM16.1723 39.7041C11.8795 39.7041 8.21576 38.2303 5.18116 35.2827C2.14657 32.3351 0.629272 28.7763 0.629272 24.6065C0.629272 20.8201 2.02321 17.4411 4.81109 14.4695C7.59897 11.4979 11.0653 9.86834 15.2101 9.58077C16.7891 6.89674 18.8738 4.77588 21.4644 3.21819C24.0549 1.6605 26.9784 0.881653 30.2351 0.881653C34.7253 0.881653 38.4877 2.25961 41.5223 5.01553C44.5569 7.77145 46.4196 11.1864 47.1104 15.2604C51.0085 15.4521 54.1048 16.7342 56.3992 19.1067C58.6937 21.4791 59.8409 24.271 59.8409 27.4822C59.8409 30.8373 58.6196 33.713 56.1772 36.1095C53.7347 38.5059 50.7618 39.7041 47.2584 39.7041H16.1723ZM16.1723 35.3905H47.2584C49.5282 35.3905 51.4526 34.6117 53.0315 33.054C54.6105 31.4963 55.4 29.6151 55.4 27.4104C55.4 25.2535 54.6105 23.4083 53.0315 21.8746C51.4526 20.3408 49.5282 19.574 47.2584 19.574H42.8175V17.4172C42.8175 14.0142 41.5963 11.1265 39.1538 8.75399C36.7113 6.38151 33.7384 5.19526 30.2351 5.19526C27.7186 5.19526 25.4118 5.85429 23.3147 7.17233C21.2176 8.49038 19.6757 10.2757 18.6888 12.5284L18.0967 13.8225H16.0243C12.965 13.9183 10.3745 15.0087 8.25277 17.0936C6.13102 19.1785 5.07014 21.6828 5.07014 24.6065C5.07014 27.5781 6.15569 30.1183 8.32678 32.2272C10.4979 34.3361 13.1131 35.3905 16.1723 35.3905Z" fill="#333335"/>
</svg>
