<svg width="41" height="41" viewBox="0 0 41 41" fill="none" xmlns="http://www.w3.org/2000/svg">
<path d="M20.5439 40.871C17.7105 40.871 15.0772 40.3626 12.6439 39.346C10.2105 38.3293 8.09385 36.921 6.29385 35.121C4.49385 33.321 3.08552 31.2043 2.06885 28.771C1.05219 26.3376 0.543854 23.7043 0.543854 20.871C0.543854 18.071 1.05219 15.4543 2.06885 13.021C3.08552 10.5876 4.49385 8.47097 6.29385 6.67097C8.09385 4.87097 10.2105 3.4543 12.6439 2.42097C15.0772 1.38763 17.7105 0.870968 20.5439 0.870968C23.3439 0.870968 25.9605 1.38763 28.3939 2.42097C30.8272 3.4543 32.9439 4.87097 34.7439 6.67097C36.5439 8.47097 37.9605 10.5876 38.9939 13.021C40.0272 15.4543 40.5439 18.071 40.5439 20.871C40.5439 23.7043 40.0272 26.3376 38.9939 28.771C37.9605 31.2043 36.5439 33.321 34.7439 35.121C32.9439 36.921 30.8272 38.3293 28.3939 39.346C25.9605 40.3626 23.3439 40.871 20.5439 40.871ZM20.5439 37.871C25.3772 37.871 29.4189 36.246 32.6689 32.996C35.9189 29.746 37.5439 25.7043 37.5439 20.871C37.5439 16.0376 35.9189 11.996 32.6689 8.74597C29.4189 5.49597 25.3772 3.87097 20.5439 3.87097C15.7105 3.87097 11.6689 5.49597 8.41885 8.74597C5.16885 11.996 3.54385 16.0376 3.54385 20.871C3.54385 25.7043 5.16885 29.746 8.41885 32.996C11.6689 36.246 15.7105 37.871 20.5439 37.871ZM13.0439 28.371H28.0439V13.371H13.0439V28.371Z" fill="#1b1b1f"/>
</svg>
