<svg width="54" height="54" viewBox="0 0 54 54" fill="none" xmlns="http://www.w3.org/2000/svg">
<path d="M27 35.5909C29.3727 35.5909 31.3977 34.7523 33.075 33.075C34.7523 31.3977 35.5909 29.3727 35.5909 27C35.5909 24.6273 34.7523 22.6023 33.075 20.925C31.3977 19.2477 29.3727 18.4091 27 18.4091C24.6273 18.4091 22.6023 19.2477 20.925 20.925C19.2477 22.6023 18.4091 24.6273 18.4091 27C18.4091 29.3727 19.2477 31.3977 20.925 33.075C22.6023 34.7523 24.6273 35.5909 27 35.5909ZM27 39.2727C23.6045 39.2727 20.7102 38.0761 18.317 35.683C15.9239 33.2898 14.7273 30.3955 14.7273 27C14.7273 23.6045 15.9239 20.7102 18.317 18.317C20.7102 15.9239 23.6045 14.7273 27 14.7273C30.3955 14.7273 33.2898 15.9239 35.683 18.317C38.0761 20.7102 39.2727 23.6045 39.2727 27C39.2727 30.3955 38.0761 33.2898 35.683 35.683C33.2898 38.0761 30.3955 39.2727 27 39.2727ZM1.84091 28.8409C1.30909 28.8409 0.869318 28.667 0.521591 28.3193C0.173864 27.9716 0 27.5318 0 27C0 26.4682 0.173864 26.0284 0.521591 25.6807C0.869318 25.333 1.30909 25.1591 1.84091 25.1591H7.97727C8.50909 25.1591 8.94886 25.333 9.29659 25.6807C9.64432 26.0284 9.81818 26.4682 9.81818 27C9.81818 27.5318 9.64432 27.9716 9.29659 28.3193C8.94886 28.667 8.50909 28.8409 7.97727 28.8409H1.84091ZM46.0227 28.8409C45.4909 28.8409 45.0511 28.667 44.7034 28.3193C44.3557 27.9716 44.1818 27.5318 44.1818 27C44.1818 26.4682 44.3557 26.0284 44.7034 25.6807C45.0511 25.333 45.4909 25.1591 46.0227 25.1591H52.1591C52.6909 25.1591 53.1307 25.333 53.4784 25.6807C53.8261 26.0284 54 26.4682 54 27C54 27.5318 53.8261 27.9716 53.4784 28.3193C53.1307 28.667 52.6909 28.8409 52.1591 28.8409H46.0227ZM27 9.81818C26.4682 9.81818 26.0284 9.64432 25.6807 9.29659C25.333 8.94886 25.1591 8.50909 25.1591 7.97727V1.84091C25.1591 1.30909 25.333 0.869318 25.6807 0.521591C26.0284 0.173864 26.4682 0 27 0C27.5318 0 27.9716 0.173864 28.3193 0.521591C28.667 0.869318 28.8409 1.30909 28.8409 1.84091V7.97727C28.8409 8.50909 28.667 8.94886 28.3193 9.29659C27.9716 9.64432 27.5318 9.81818 27 9.81818ZM27 54C26.4682 54 26.0284 53.8261 25.6807 53.4784C25.333 53.1307 25.1591 52.6909 25.1591 52.1591V46.0227C25.1591 45.4909 25.333 45.0511 25.6807 44.7034C26.0284 44.3557 26.4682 44.1818 27 44.1818C27.5318 44.1818 27.9716 44.3557 28.3193 44.7034C28.667 45.0511 28.8409 45.4909 28.8409 46.0227V52.1591C28.8409 52.6909 28.667 53.1307 28.3193 53.4784C27.9716 53.8261 27.5318 54 27 54ZM12.2727 14.85L8.775 11.4136C8.40682 11.0455 8.23295 10.6057 8.25341 10.0943C8.27386 9.58296 8.44773 9.14318 8.775 8.775C9.14318 8.40682 9.58296 8.22273 10.0943 8.22273C10.6057 8.22273 11.0455 8.40682 11.4136 8.775L14.85 12.2727C15.1773 12.6409 15.3409 13.0705 15.3409 13.5614C15.3409 14.0523 15.1773 14.4614 14.85 14.7886C14.5227 15.1568 14.1034 15.3409 13.592 15.3409C13.0807 15.3409 12.6409 15.1773 12.2727 14.85ZM42.5864 45.225L39.15 41.7273C38.8227 41.3591 38.6591 40.9193 38.6591 40.408C38.6591 39.8966 38.8432 39.4773 39.2114 39.15C39.5386 38.7818 39.9477 38.5977 40.4386 38.5977C40.9295 38.5977 41.3591 38.7818 41.7273 39.15L45.225 42.5864C45.5932 42.9545 45.767 43.3943 45.7466 43.9057C45.7261 44.417 45.5523 44.8568 45.225 45.225C44.8568 45.5932 44.417 45.7773 43.9057 45.7773C43.3943 45.7773 42.9545 45.5932 42.5864 45.225ZM39.15 14.85C38.7818 14.4818 38.5977 14.0523 38.5977 13.5614C38.5977 13.0705 38.7818 12.6409 39.15 12.2727L42.5864 8.775C42.9545 8.40682 43.3943 8.23295 43.9057 8.25341C44.417 8.27386 44.8568 8.44773 45.225 8.775C45.5932 9.14318 45.7773 9.58296 45.7773 10.0943C45.7773 10.6057 45.5932 11.0455 45.225 11.4136L41.7273 14.85C41.4 15.1773 40.9807 15.3409 40.4693 15.3409C39.958 15.3409 39.5182 15.1773 39.15 14.85ZM8.775 45.225C8.40682 44.8568 8.22273 44.417 8.22273 43.9057C8.22273 43.3943 8.40682 42.9545 8.775 42.5864L12.2727 39.15C12.6409 38.7818 13.0705 38.5977 13.5614 38.5977C14.0523 38.5977 14.4818 38.7818 14.85 39.15C15.2182 39.5182 15.4023 39.9477 15.4023 40.4386C15.4023 40.9295 15.2182 41.3591 14.85 41.7273L11.4136 45.225C11.0455 45.5932 10.6057 45.767 10.0943 45.7466C9.58296 45.7261 9.14318 45.5523 8.775 45.225Z" fill="white"/>
</svg>
