<svg width="51" height="62" viewBox="0 0 51 62" fill="none" xmlns="http://www.w3.org/2000/svg">
<path d="M6.31592 61.2722V56.7429H23.4133V43.155H16.4189C12.1187 43.155 8.45309 41.683 5.4222 38.739C2.3913 35.7949 0.875854 32.2344 0.875854 28.0574C0.875854 25.0379 1.73072 22.2574 3.44046 19.716C5.15019 17.1745 7.45574 15.3251 10.3571 14.1676C10.8234 10.3932 12.5202 7.23524 15.4475 4.69381C18.3747 2.15237 21.8072 0.881653 25.7447 0.881653C29.6823 0.881653 33.1147 2.15237 36.042 4.69381C38.9693 7.23524 40.6661 10.3932 41.1323 14.1676C44.0337 15.3251 46.3393 17.1745 48.049 19.716C49.7587 22.2574 50.6136 25.0379 50.6136 28.0574C50.6136 32.2344 49.0982 35.7949 46.0673 38.739C43.0364 41.683 39.3708 43.155 35.0706 43.155H28.0762V56.7429H45.9507V61.2722H6.31592ZM16.4189 38.6257H35.0706C38.0755 38.6257 40.6401 37.5941 42.7644 35.5307C44.8886 33.4674 45.9507 30.9763 45.9507 28.0574C45.9507 25.9437 45.329 24.0188 44.0855 22.2825C42.8421 20.5463 41.236 19.2504 39.2672 18.3949L36.7803 17.3381L36.4694 14.696C36.1068 12.0287 34.9151 9.81442 32.8945 8.05303C30.8739 6.29164 28.4907 5.41094 25.7447 5.41094C22.9988 5.41094 20.6155 6.29164 18.5949 8.05303C16.5743 9.81442 15.3827 12.0287 15.02 14.696L14.7092 17.3381L12.2223 18.3949C10.2535 19.2504 8.64738 20.5463 7.40393 22.2825C6.16049 24.0188 5.53877 25.9437 5.53877 28.0574C5.53877 30.9763 6.60088 33.4674 8.72509 35.5307C10.8493 37.5941 13.4139 38.6257 16.4189 38.6257Z" fill="#1b1b1f"/>
</svg>
