<svg width="40" height="40" viewBox="0 0 40 40" fill="none" xmlns="http://www.w3.org/2000/svg">
<path fill-rule="evenodd" clip-rule="evenodd" d="M4.11612 5.36612C4.60427 4.87796 5.39573 4.87796 5.88388 5.36612L33.3839 32.8661C33.872 33.3543 33.872 34.1457 33.3839 34.6339C32.8957 35.122 32.1043 35.122 31.6161 34.6339L4.11612 7.13388C3.62796 6.64573 3.62796 5.85427 4.11612 5.36612Z" fill="#1B1B1F"/>
<path d="M17.5 10.6969V13.3375C17.5001 13.4201 17.533 13.4993 17.5914 13.5578L19.4664 15.4328C19.5101 15.4765 19.5657 15.5063 19.6263 15.5184C19.6869 15.5305 19.7497 15.5244 19.8068 15.5008C19.8639 15.4772 19.9127 15.4373 19.9471 15.386C19.9815 15.3346 19.9999 15.2743 20 15.2125V9.41953C20.0035 9.07369 19.9133 8.73336 19.739 8.43461C19.5648 8.13587 19.3129 7.88986 19.0102 7.72266C18.6981 7.55471 18.3448 7.47897 17.9913 7.50429C17.6379 7.5296 17.299 7.65492 17.0141 7.86563C16.9962 7.87803 16.979 7.89133 16.9625 7.90547L14.4672 9.94844C14.4335 9.97612 14.4059 10.0105 14.3863 10.0495C14.3667 10.0885 14.3555 10.1311 14.3534 10.1747C14.3512 10.2182 14.3582 10.2618 14.3739 10.3025C14.3896 10.3431 14.4137 10.3801 14.4445 10.4109L15.7766 11.7438C15.8315 11.7987 15.9049 11.8311 15.9824 11.8349C16.06 11.8387 16.1361 11.8134 16.1961 11.7641L17.5 10.6969Z" fill="#1B1B1F"/>
<path d="M17.5 29.3031L11.4008 24.3094C10.953 23.9457 10.3932 23.7481 9.81641 23.75H5V16.25H8.9625C9.02428 16.2499 9.08463 16.2315 9.13595 16.1971C9.18727 16.1627 9.22724 16.1139 9.25081 16.0568C9.27439 15.9997 9.28051 15.9369 9.26841 15.8763C9.25631 15.8157 9.22652 15.7601 9.18281 15.7164L7.30781 13.8414C7.24935 13.783 7.17013 13.7501 7.0875 13.75H4.375C3.87772 13.75 3.40081 13.9475 3.04917 14.2992C2.69754 14.6508 2.5 15.1277 2.5 15.625V24.375C2.5 24.8723 2.69754 25.3492 3.04917 25.7008C3.40081 26.0525 3.87772 26.25 4.375 26.25H9.825L16.9625 32.0937C16.979 32.1079 16.9962 32.1212 17.0141 32.1336C17.3025 32.3471 17.6463 32.4731 18.0044 32.4965C18.3625 32.5199 18.7198 32.4398 19.0336 32.2656C19.3302 32.0967 19.5762 31.8515 19.7462 31.5555C19.9161 31.2595 20.0037 30.9234 20 30.582V26.6625C19.9999 26.5799 19.967 26.5007 19.9086 26.4422L18.0336 24.5672C17.9899 24.5235 17.9343 24.4937 17.8737 24.4816C17.8131 24.4695 17.7503 24.4756 17.6932 24.4992C17.6361 24.5228 17.5873 24.5627 17.5529 24.6141C17.5185 24.6654 17.5001 24.7257 17.5 24.7875V29.3031Z" fill="#1B1B1F"/>
<path d="M27.5 20C27.5 18.0813 27.0461 16.2594 26.1133 14.432C25.9591 14.143 25.6977 13.926 25.3852 13.8278C25.0727 13.7295 24.7341 13.7579 24.4423 13.9068C24.1505 14.0556 23.9288 14.3131 23.8249 14.6238C23.721 14.9345 23.7432 15.2735 23.8867 15.568C24.6359 17.0359 25 18.4859 25 20C25 20.2083 24.9919 20.4201 24.9758 20.6352C24.9691 20.7248 24.9818 20.8148 25.0131 20.8991C25.0444 20.9833 25.0935 21.0599 25.157 21.1234L26.693 22.6602C26.7327 22.7001 26.7826 22.7286 26.8372 22.7425C26.8918 22.7565 26.9492 22.7554 27.0033 22.7393C27.0573 22.7233 27.106 22.693 27.1442 22.6515C27.1824 22.6101 27.2087 22.5591 27.2203 22.5039C27.4052 21.6821 27.499 20.8424 27.5 20Z" fill="#1B1B1F"/>
<path d="M32.5 20C32.5 16.0008 31.4781 13.4461 29.8297 10.6203C29.6604 10.3386 29.3869 10.1349 29.0686 10.0533C28.7502 9.97169 28.4124 10.0188 28.1285 10.1844C27.8446 10.35 27.6373 10.6207 27.5516 10.938C27.4658 11.2553 27.5085 11.5936 27.6703 11.8797C29.1461 14.4094 30 16.5492 30 20C30 21.8617 29.743 23.35 29.268 24.7383C29.2298 24.849 29.2235 24.9681 29.2497 25.0822C29.2759 25.1963 29.3337 25.3007 29.4164 25.3836L30.7266 26.693C30.7628 26.7293 30.8073 26.7562 30.8564 26.7712C30.9054 26.7862 30.9574 26.789 31.0077 26.7792C31.058 26.7693 31.1052 26.7473 31.145 26.715C31.1848 26.6826 31.216 26.641 31.2359 26.5937C32.0383 24.6781 32.5 22.6492 32.5 20Z" fill="#1B1B1F"/>
<path d="M37.5 20C37.5 14.1984 35.9227 10.5383 33.5539 6.82734C33.3755 6.54762 33.0933 6.35023 32.7694 6.27858C32.4454 6.20694 32.1063 6.26691 31.8266 6.44531C31.5468 6.62371 31.3494 6.90592 31.2778 7.22986C31.2062 7.5538 31.2661 7.89294 31.4445 8.17266C33.5797 11.5141 35 14.8047 35 20C35 23.707 34.3047 26.4156 33.157 28.8281C33.1291 28.8863 33.1199 28.9518 33.1307 29.0154C33.1415 29.0791 33.1717 29.1378 33.2172 29.1836L34.6094 30.5773C34.6442 30.6124 34.6868 30.6387 34.7337 30.654C34.7806 30.6694 34.8305 30.6735 34.8793 30.6658C34.9281 30.6582 34.9744 30.6392 35.0144 30.6102C35.0544 30.5812 35.0869 30.5432 35.1094 30.4992C36.7875 27.2047 37.5 23.9844 37.5 20Z" fill="#1B1B1F"/>
</svg>
