<svg width="40" height="40" viewBox="0 0 40 40" fill="none" xmlns="http://www.w3.org/2000/svg">
<path fill-rule="evenodd" clip-rule="evenodd" d="M20.4689 7.50651C20.8141 7.47766 21.1606 7.54502 21.4698 7.70112C21.7791 7.85721 22.0391 8.09593 22.2209 8.3908C22.4028 8.68567 22.4994 9.02516 22.5 9.37159L22.5 9.37386V30.6239L22.5 30.6261C22.4994 30.9726 22.4028 31.3121 22.2209 31.6069C22.0391 31.9018 21.7791 32.1405 21.4698 32.2966C21.1606 32.4527 20.8141 32.5201 20.4689 32.4912C20.1236 32.4624 19.7931 32.3384 19.5141 32.1332C19.4966 32.1204 19.4796 32.1071 19.4628 32.0934L12.3243 26.2488C12.3232 26.2488 12.3222 26.2488 12.3211 26.2489C12.3195 26.2489 12.318 26.2489 12.3164 26.2489H6.875C6.37772 26.2489 5.90081 26.0513 5.54917 25.6997C5.19754 25.3481 5 24.8711 5 24.3739V15.6239C5 15.1266 5.19754 14.6497 5.54917 14.298C5.90081 13.9464 6.37772 13.7489 6.875 13.7489H12.3244L19.4628 7.90434C19.4796 7.89064 19.4966 7.87737 19.5141 7.86456C19.7931 7.6593 20.1236 7.53537 20.4689 7.50651ZM20 10.6956L13.9065 15.6845C13.4675 16.0518 12.9125 16.2518 12.34 16.2489H7.5V23.7489H12.3122C12.8877 23.7456 13.4467 23.9414 13.8943 24.3032C13.8964 24.3049 13.8984 24.3066 13.9005 24.3082L20 29.3022V10.6956Z" fill="#1B1B1F"/>
<path fill-rule="evenodd" clip-rule="evenodd" d="M26.9319 13.8865C27.5469 13.5728 28.2997 13.817 28.6135 14.4319C29.4702 16.1111 30 17.9366 30 20C30 22.043 29.4474 23.9062 28.6172 25.5606C28.3076 26.1777 27.5564 26.4269 26.9394 26.1172C26.3223 25.8076 26.0731 25.0564 26.3828 24.4394C27.0745 23.061 27.5 21.5804 27.5 20C27.5 18.39 27.0923 16.9514 26.3865 15.5681C26.0728 14.9531 26.317 14.2003 26.9319 13.8865Z" fill="#1B1B1F"/>
<path fill-rule="evenodd" clip-rule="evenodd" d="M30.6204 10.1702C31.2167 9.82242 31.9821 10.024 32.3298 10.6204C33.9693 13.432 35 15.9691 35 20C35 24.0371 33.9244 26.5967 32.3346 29.3714C31.9914 29.9704 31.2276 30.1778 30.6286 29.8346C30.0296 29.4914 29.8222 28.7276 30.1654 28.1286C31.6194 25.5908 32.5 23.4629 32.5 20C32.5 16.5309 31.6557 14.4274 30.1702 11.8796C29.8224 11.2833 30.024 10.5179 30.6204 10.1702Z" fill="#1B1B1F"/>
</svg>
