<svg  width="64" height="64" viewBox="0 0 64 64" fill="none" xmlns="http://www.w3.org/2000/svg">
<path fill-rule="evenodd" clip-rule="evenodd" d="M24.7502 0.0104226C25.3025 -0.0357388 25.8569 0.0720358 26.3517 0.321784C26.8466 0.571533 27.2625 0.953494 27.5535 1.42529C27.8444 1.89707 27.999 2.44025 28 2.99454L28 2.99818V36.9982L28 37.0018C27.999 37.5561 27.8444 38.0993 27.5535 38.5711C27.2625 39.0429 26.8465 39.4248 26.3517 39.6746C25.8569 39.9243 25.3025 40.0321 24.7502 39.9859C24.1978 39.9398 23.669 39.7415 23.2225 39.4131C23.1946 39.3926 23.1673 39.3713 23.1405 39.3494L11.7189 29.9981C11.7172 29.9981 11.7154 29.9982 11.7137 29.9982C11.7112 29.9982 11.7087 29.9982 11.7063 29.9982H3C2.20435 29.9982 1.44129 29.6821 0.87868 29.1195C0.31607 28.5569 0 27.7938 0 26.9982V12.9982C0 12.2025 0.31607 11.4395 0.87868 10.8769C1.44129 10.3142 2.20435 9.99818 3 9.99818H11.719L23.1405 0.64694C23.1673 0.625019 23.1946 0.603796 23.2225 0.583294C23.669 0.254875 24.1978 0.056584 24.7502 0.0104226ZM24 5.11289L14.2504 13.0952C13.548 13.6829 12.66 14.0029 11.744 13.9982H4V25.9982H11.6996C12.6203 25.993 13.5147 26.3063 14.2309 26.8852C14.2342 26.8878 14.2375 26.8905 14.2407 26.8932L24 34.8835V5.11289Z" fill="#333335"/>
<path fill-rule="evenodd" clip-rule="evenodd" d="M35.0911 10.2185C36.075 9.71648 37.2795 10.1071 37.7815 11.0911C39.1523 13.7777 40 16.6985 40 20C40 23.2688 39.1159 26.2499 37.7876 28.897C37.2922 29.8842 36.0902 30.283 35.103 29.7876C34.1158 29.2922 33.717 28.0902 34.2124 27.103C35.3191 24.8976 36 22.5287 36 20C36 17.424 35.3477 15.1223 34.2185 12.9089C33.7165 11.925 34.1072 10.7205 35.0911 10.2185Z" fill="#333335"/>
<path fill-rule="evenodd" clip-rule="evenodd" d="M40.9926 4.27226C41.9468 3.71587 43.1714 4.03837 43.7277 4.99257C46.3509 9.4912 48 13.5505 48 20C48 26.4594 46.279 30.5547 43.7354 34.9943C43.1862 35.9527 41.9642 36.2845 41.0057 35.7354C40.0473 35.1862 39.7155 33.9641 40.2646 33.0057C42.591 28.9453 44 25.5406 44 20C44 14.4495 42.6491 11.0838 40.2723 7.00743C39.7159 6.05322 40.0384 4.82865 40.9926 4.27226Z" fill="#333335"/>
</svg>
